<svg width="22" height="22" viewBox="0 0 22 22" fill="none" xmlns="http://www.w3.org/2000/svg">
<g clip-path="url(#clip0_849_13038)">
<path d="M21.1229 17.8399C17.9936 12.1233 14.8629 6.40662 11.7329 0.68995C11.6286 0.492109 11.4722 0.326505 11.2806 0.210989C11.0891 0.0954721 10.8696 0.0344238 10.6459 0.0344238C10.4223 0.0344238 10.2028 0.0954721 10.0113 0.210989C9.81971 0.326505 9.66332 0.492109 9.55894 0.68995C6.42927 6.40662 3.29694 12.1233 0.168941 17.8399C-0.315392 18.7229 0.301941 19.8676 1.25494 19.8676H20.0383C20.5663 19.8676 20.9209 19.5833 21.1059 19.1976C21.3386 18.8303 21.4009 18.3426 21.1243 17.8393" fill="#FFDD15"/>
<path d="M9.6381 11.4924L9.34177 7.07171C9.28643 6.21071 9.25977 5.59204 9.25977 5.21671C9.25977 4.70537 9.3931 4.30771 9.66043 4.02071C9.92877 3.73537 10.2814 3.59204 10.7188 3.59204C11.2464 3.59204 11.6008 3.77571 11.7781 4.14071C11.9571 4.50804 12.0478 5.03537 12.0478 5.72437C12.0478 6.12937 12.0258 6.54204 11.9818 6.96037L11.5851 11.51C11.5421 12.052 11.4504 12.4674 11.3094 12.7564C11.1674 13.0467 10.9334 13.19 10.6064 13.19C10.2758 13.19 10.0431 13.0504 9.91577 12.771C9.78477 12.4907 9.6931 12.0644 9.6381 11.4924ZM10.6621 17.5647C10.2871 17.5647 9.9601 17.444 9.67977 17.2004C9.39943 16.9577 9.25977 16.6177 9.25977 16.181C9.25977 15.8 9.3931 15.4744 9.66043 15.2074C9.92877 14.9387 10.2558 14.8054 10.6441 14.8054C11.0324 14.8054 11.3618 14.9387 11.6364 15.2074C11.9081 15.4744 12.0478 15.8 12.0478 16.181C12.0478 16.611 11.9081 16.9504 11.6324 17.1957C11.3674 17.4372 11.0206 17.5691 10.6621 17.5647Z" fill="#1F2E35"/>
</g>
<defs>
<clipPath id="clip0_849_13038">
<rect width="21.3333" height="21.3333" fill="white"/>
</clipPath>
</defs>
</svg>
